<?xml version="1.0" encoding="UTF-8"?>
<svg version="1.1" xmlns="http://www.w3.org/2000/svg" viewBox="0 -71 1116 1116">
<path d="M0 0 C1.88628116 0.97121751 3.78770726 1.90494123 5.69482422 2.83447266 C24.54400733 12.20084459 42.60919186 24.66900532 58.88623047 37.97119141 C59.80533203 38.70080078 60.72443359 39.43041016 61.67138672 40.18212891 C72.2607154 48.67146414 81.98506046 57.97082037 91.6109314 67.5206604 C93.03182049 68.92963292 94.45664835 70.33462988 95.8815918 71.73950195 C101.98818566 77.83846462 107.52723747 84.21067644 112.88623047 90.97119141 C113.91137595 92.2255953 114.93843608 93.47843942 115.96826172 94.72900391 C161.9113694 151.14921091 190.94203314 221.32384556 196.88623047 293.97119141 C197.05251953 295.87771484 197.05251953 295.87771484 197.22216797 297.82275391 C200.80408813 346.90474092 194.2626121 395.47360038 178.82373047 442.09619141 C178.57437744 442.85518738 178.32502441 443.61418335 178.06811523 444.3961792 C175.00085009 453.66883139 171.56006389 462.36786433 166.88623047 470.97119141 C165.89623047 470.97119141 164.90623047 470.97119141 163.88623047 470.97119141 C152.21200261 457.40292151 148.21189188 435.73763305 143.88623047 418.97119141 C143.6090921 417.89916473 143.6090921 417.89916473 143.32635498 416.80548096 C141.42328602 409.44225455 139.53025733 402.07649439 137.65722656 394.70556641 C135.70854579 387.04099589 133.74893103 379.38144298 131.67919922 371.74853516 C131.33679199 370.48525391 130.99438477 369.22197266 130.64160156 367.92041016 C129.97797353 365.47861998 129.31296267 363.03720515 128.64648438 360.59619141 C127.03147361 354.59311832 125.55862693 348.59576398 124.30419922 342.50634766 C123.92666504 340.68538574 123.92666504 340.68538574 123.54150391 338.82763672 C123.08203807 336.55906321 122.64200168 334.28641378 122.22705078 332.00927734 C120.19376648 321.89995273 115.17679167 314.09874859 108.38623047 306.40869141 C107.69529297 305.60302734 107.00435547 304.79736328 106.29248047 303.96728516 C100.14929261 298.8712316 91.73167775 299.34601283 84.14453125 299.75830078 C77.37527034 300.39644084 70.73188584 302.02616974 64.10644531 303.50146484 C61.23683718 304.10858229 58.34942559 304.54058889 55.44873047 304.97119141 C51.2632415 305.74943076 48.7264221 306.6146013 45.88623047 309.97119141 C42.3949723 316.25946137 41.0779685 322.32034251 40.32373047 329.40869141 C40.20642578 330.39514648 40.08912109 331.38160156 39.96826172 332.39794922 C39.59243327 335.58749333 39.23763912 338.77887087 38.88623047 341.97119141 C38.51386752 345.28222901 38.13916538 348.59296968 37.76074219 351.90332031 C37.51058374 354.11952195 37.26875055 356.33667879 37.03515625 358.5546875 C36.50432488 363.43411279 35.91361994 368.18730973 34.74951172 372.95947266 C31.55822547 386.42905824 35.24349327 396.23283498 39.87207031 409.02490234 C48.51031203 434.12030462 49.34124978 464.93416586 45.88623047 490.97119141 C45.22623047 490.97119141 44.56623047 490.97119141 43.88623047 490.97119141 C38.39623559 472.99145817 34.44125246 454.76739656 30.56347656 436.38305664 C26.59687271 417.64244431 22.69133291 399.59449204 13.67919922 382.56494141 C11.21298092 377.79700925 9.32179781 372.77161018 7.45874023 367.74243164 C5.68834504 363.18635504 3.75824926 360.14697969 -0.11376953 356.97119141 C-4.24759722 356.36834153 -7.4594357 356.94100595 -11.11376953 358.97119141 C-11.83389872 360.27642555 -12.48878308 361.61782 -13.11376953 362.97119141 C-17.40903879 371.20379081 -22.25443256 378.71877756 -27.80126953 386.15869141 C-28.39633301 386.97869629 -28.99139648 387.79870117 -29.60449219 388.64355469 C-32.48748631 392.5906119 -35.38701688 396.32709774 -38.76611328 399.86181641 C-51.62701716 414.29294692 -50.85196151 433.65296621 -51.60902405 452.06832886 C-51.9493501 459.30618153 -53.61707369 464.45376951 -57.55126953 470.59619141 C-62.60549946 479.13175814 -64.02185334 487.66106914 -65.18798828 497.36181641 C-65.27802124 498.09674316 -65.3680542 498.83166992 -65.46081543 499.58886719 C-65.68031092 501.38275058 -65.89730027 503.17694032 -66.11376953 504.97119141 C-57.53234321 505.98452506 -48.95039822 506.99331157 -40.36781311 507.99677849 C-36.37972328 508.46319617 -32.39180785 508.93100086 -28.40429688 509.40234375 C-23.78712844 509.94790462 -19.1693912 510.48844984 -14.55126953 511.02587891 C-13.42288162 511.15767673 -13.42288162 511.15767673 -12.271698 511.29213715 C-1.49893019 512.54482087 9.27052714 513.61264152 20.09741211 514.29440308 C20.99065186 514.35677155 21.8838916 514.41914001 22.80419922 514.48339844 C23.96085083 514.55398972 23.96085083 514.55398972 25.14086914 514.62600708 C25.71683838 514.73991791 26.29280762 514.85382874 26.88623047 514.97119141 C27.21623047 515.63119141 27.54623047 516.29119141 27.88623047 516.97119141 C22.0400287 517.62813814 16.23556006 518.07883981 10.35571289 518.26123047 C-10.86675914 518.93985036 -31.37998084 522.56744492 -52.11376953 526.97119141 C-44.94851798 528.35532302 -37.81422099 529.45469621 -30.55908203 530.23291016 C-29.53929764 530.34438889 -28.51951324 530.45586761 -27.46882629 530.57072449 C-24.05944723 530.93966468 -20.64925348 531.3001149 -17.23876953 531.65869141 C-16.05364777 531.78447571 -14.868526 531.91026001 -13.64749146 532.03985596 C24.46358976 536.0573608 62.68652079 538.94338939 100.88623047 541.97119141 C101.21623047 542.96119141 101.54623047 543.95119141 101.88623047 544.97119141 C94.63078154 547.44017456 87.61972155 548.7319052 80.00732422 549.50634766 C78.26375893 549.69077171 78.26375893 549.69077171 76.48497009 549.87892151 C61.50162052 551.39935048 46.47580838 552.34137456 31.44553757 553.25617981 C28.91271411 553.41089138 26.3800674 553.56826776 23.84744263 553.72619629 C-9.79542604 555.81686389 -43.46040325 557.33217309 -77.13891602 558.71508789 C-78.09309418 558.75439076 -79.04727234 558.79369364 -80.03036499 558.83418751 C-84.49702044 559.01791169 -88.9637372 559.19945057 -93.43069458 559.37568665 C-103.00491224 559.75936308 -112.55671962 560.2757367 -122.11376953 560.97119141 C-121.21509659 561.0831485 -120.31642365 561.19510559 -119.39051819 561.31045532 C9.10809487 577.33075433 9.10809487 577.33075433 25.88623047 584.97119141 C25.88623047 585.63119141 25.88623047 586.29119141 25.88623047 586.97119141 C19.94002492 589.38975364 14.21330482 590.89550447 7.89794922 592.00244141 C6.94288986 592.17215454 5.98783051 592.34186768 5.00382996 592.51672363 C-6.04154568 594.40391442 -17.14726708 595.46592411 -28.30126953 596.47119141 C-30.55440213 596.68153646 -32.80749376 596.89232081 -35.06054688 597.10351562 C-52.18953372 598.69110897 -69.33546244 600.04599841 -86.48867798 601.3416748 C-101.36716414 602.46584286 -116.17884084 603.75200623 -130.96875 605.75927734 C-133.36174857 605.99569013 -135.71066509 606.00598081 -138.11376953 605.97119141 C-138.11376953 606.63119141 -138.11376953 607.29119141 -138.11376953 607.97119141 C-135.47604252 608.45233001 -132.83809673 608.93217314 -130.19970703 609.40966797 C-128.32894407 609.75007579 -126.45891694 610.09460983 -124.59033203 610.44677734 C-94.75518088 615.9872507 -64.13354063 617.10555674 -33.90283203 619.00634766 C-32.52229786 619.09353128 -31.141764 619.18072 -29.76123047 619.26791382 C-23.09786069 619.68762446 -16.43412443 620.09691911 -9.76904297 620.48876953 C5.86808288 621.43205197 21.35801508 622.89389581 36.88623047 624.97119141 C36.88623047 626.29119141 36.88623047 627.61119141 36.88623047 628.97119141 C27.31962969 636.78066143 14.59698796 638.05384407 2.71044922 639.39697266 C1.04385002 639.58700111 1.04385002 639.58700111 -0.65641785 639.78086853 C-17.87628391 641.67586864 -35.16282087 642.89311965 -52.43304443 644.22735596 C-57.36615166 644.6088726 -62.29891225 644.9944293 -67.23129845 645.38516045 C-69.49569748 645.56295088 -71.76047977 645.73501979 -74.02534485 645.90675354 C-82.45420241 646.56325132 -90.77582618 647.54035617 -99.11376953 648.97119141 C-97.68049316 649.12152832 -97.68049316 649.12152832 -96.21826172 649.27490234 C-64.20081492 652.65993659 -64.20081492 652.65993659 -52.23876953 655.03369141 C-51.4637207 655.18354492 -50.68867187 655.33339844 -49.89013672 655.48779297 C-45.78962891 656.36020169 -42.56554995 657.5820179 -39.11376953 659.97119141 C-39.49010166 662.28639891 -39.7594859 663.62969252 -41.47363281 665.28198242 C-47.91189912 669.2478791 -54.82671957 671.58372409 -61.98876953 673.90869141 C-62.97286301 674.23259857 -62.97286301 674.23259857 -63.97683716 674.56304932 C-97.38098231 685.5192819 -132.22339585 691.42145792 -167.36376953 691.34619141 C-168.37088989 691.34531525 -169.37801025 691.34443909 -170.41564941 691.34353638 C-187.62216789 691.29442054 -204.1652834 690.1249773 -221.11376953 686.97119141 C-222.4388884 686.73232293 -223.76408613 686.49389163 -225.08935547 686.25585938 C-241.78703483 683.22462917 -258.20232566 679.32799621 -274.55126953 674.78369141 C-275.68607758 674.46860626 -275.68607758 674.46860626 -276.84381104 674.14715576 C-297.48295125 668.3780873 -297.48295125 668.3780873 -302.11376953 665.97119141 C-302.44376953 664.98119141 -302.77376953 663.99119141 -303.11376953 662.97119141 C-294.1812037 660.02445108 -285.30535155 657.84883925 -276.06298828 656.13134766 C-274.75209121 655.88089932 -273.44136981 655.62952998 -272.1308136 655.37730408 C-267.33317153 654.45571355 -262.53294288 653.547975 -257.73193359 652.644104 C-235.11649829 648.51919626 -235.11649829 648.51919626 -213.11376953 641.97119141 C-242.70565412 626.2482994 -287.52858591 624.20059591 -320.04003906 618.33349609 C-321.1529985 618.13136505 -322.26595795 617.92923401 -323.41264343 617.72097778 C-325.4808618 617.34575208 -327.54967228 616.97376686 -329.61921692 616.60592651 C-347.24798163 613.40408535 -347.24798163 613.40408535 -352.11376953 610.97119141 C-352.11376953 609.98119141 -352.11376953 608.99119141 -352.11376953 607.97119141 C-344.55469664 606.04332088 -336.96525391 605.2000813 -329.21822357 604.43099022 C-326.84603407 604.19523909 -324.47464644 603.95247729 -322.10333252 603.70808411 C-316.18981077 603.09995274 -310.27522562 602.50246544 -304.36047363 601.90643311 C-298.58482262 601.32414715 -292.80979304 600.73617184 -287.03564453 600.13916016 C-286.22116348 600.05502743 -285.40668243 599.9708947 -284.56752014 599.88421249 C-266.36088881 597.98997931 -248.23558261 595.5432107 -230.11376953 592.97119141 C-230.11376953 592.64119141 -230.11376953 592.31119141 -230.11376953 591.97119141 C-257.68475429 588.85734336 -285.28929838 586.23520977 -312.92401123 583.75762939 C-317.15481897 583.37770592 -321.38538485 582.99513126 -325.61593628 582.61236572 C-329.8201201 582.23201021 -334.02437376 581.85243031 -338.2286377 581.47296143 C-340.31369165 581.28473584 -342.39873404 581.09638198 -344.48376465 580.90789795 C-354.81948718 579.97405956 -365.1555998 579.04765501 -375.49612427 578.16835785 C-379.55142869 577.82335198 -383.60633844 577.47381517 -387.66125488 577.12428284 C-389.54458598 576.96342409 -391.42812445 576.80496953 -393.31188965 576.64927673 C-426.60046184 573.89781778 -426.60046184 573.89781778 -440.30126953 568.78369141 C-441.0740625 568.51105469 -441.84685547 568.23841797 -442.64306641 567.95751953 C-444.47188336 567.31005018 -446.29378431 566.64308559 -448.11376953 565.97119141 C-448.11376953 564.98119141 -448.11376953 563.99119141 -448.11376953 562.97119141 C-443.53431664 562.11012808 -439.02249395 561.730499 -434.37548828 561.54150391 C-433.58460815 561.50677475 -432.79372803 561.47204559 -431.97888184 561.43626404 C-429.25317809 561.31854031 -426.52725509 561.20718785 -423.80126953 561.09619141 C-422.34075668 561.03466385 -422.34075668 561.03466385 -420.85073853 560.97189331 C-405.31624674 560.31892566 -389.77864882 559.78443423 -374.23876953 559.27978516 C-373.31657309 559.24981445 -372.39437664 559.21984375 -371.44423485 559.18896484 C-369.55770441 559.12766821 -367.67117353 559.06638521 -365.78464222 559.00511551 C-292.56192059 557.16806051 -292.56192059 557.16806051 -219.60668945 551.19897461 C-217.09421012 550.96940422 -214.63520315 550.93124959 -212.11376953 550.97119141 C-212.11376953 550.31119141 -212.11376953 549.65119141 -212.11376953 548.97119141 C-213.10262146 548.90356094 -213.10262146 548.90356094 -214.1114502 548.83456421 C-222.60091558 548.19536859 -231.00247228 547.12435451 -239.43447876 545.9779892 C-242.0481142 545.62294733 -244.6622785 545.27204825 -247.27661133 544.92218018 C-251.07345991 544.41395323 -254.87016595 543.90468412 -258.66674805 543.39447021 C-286.25362006 539.68952303 -313.84629491 536.06719757 -341.48876953 532.79931641 C-342.55333878 532.67329922 -343.61790802 532.54728203 -344.71473694 532.41744614 C-355.06797206 531.19310577 -365.42253948 529.98103648 -375.77989197 528.79201508 C-379.59130562 528.35315583 -383.40200393 527.90829321 -387.21258545 527.46227264 C-389.83149911 527.15825275 -392.45132482 526.86322535 -395.07128906 526.56842041 C-396.63824253 526.38531 -398.20514071 526.2017255 -399.77197266 526.01757812 C-400.47869362 525.94073603 -401.18541458 525.86389393 -401.91355133 525.78472328 C-405.36528461 525.36862252 -407.1561859 524.94291383 -410.11376953 522.97119141 C-402.89659601 520.44968932 -395.61553826 518.4789411 -388.20361328 516.61572266 C-386.99556534 516.30922287 -385.7875174 516.00272308 -384.54286194 515.68693542 C-381.36246962 514.88065709 -378.18136621 514.07727001 -374.99987793 513.27532959 C-371.74099393 512.45310599 -368.48309059 511.62701542 -365.22509766 510.80126953 C-358.85554364 509.18771463 -352.48503522 507.57797349 -346.11376953 505.97119141 C-346.13733521 504.09753906 -346.13733521 504.09753906 -346.16137695 502.18603516 C-346.21639161 497.47451433 -346.25037513 492.76302078 -346.27856445 488.05126953 C-346.29349037 486.02648111 -346.31383846 484.00172407 -346.34008789 481.97705078 C-346.60454707 461.02773572 -345.58290219 439.00215697 -330.11376953 422.97119141 C-326.36994472 420.4753082 -324.85363426 420.8488906 -320.56982422 421.44140625 C-316.51065 422.31699353 -312.94977046 423.95801149 -309.23876953 425.78369141 C-308.49369141 426.12722656 -307.74861328 426.47076172 -306.98095703 426.82470703 C-302.26365325 429.08578879 -299.30337351 430.79742238 -297.39990234 435.87573242 C-296.34739527 438.976796 -295.40009558 442.10653982 -294.45166016 445.24072266 C-292.29844236 452.06966143 -289.5070058 457.13352451 -283.86376953 461.72119141 C-272.77497429 471.32782095 -268.20513937 480.10896929 -267.13916016 494.64892578 C-267.06890625 495.76589844 -266.99865234 496.88287109 -266.92626953 498.03369141 C-266.80348633 499.76135742 -266.80348633 499.76135742 -266.67822266 501.52392578 C-266.47963948 504.33913433 -266.29174248 507.15461766 -266.11376953 509.97119141 C-265.45857456 509.96603767 -264.80337959 509.96088394 -264.12833023 509.95557404 C-247.94825575 509.8284226 -231.76816736 509.70322987 -215.58806229 509.58003998 C-207.76247688 509.52041461 -199.93689704 509.46019227 -192.11132812 509.3984375 C-157.11180172 509.12256754 -122.11473757 508.87622103 -87.11376953 508.97119141 C-87.3271698 508.21608276 -87.54057007 507.46097412 -87.76043701 506.6829834 C-88.04558167 505.67401001 -88.33072632 504.66503662 -88.62451172 503.62548828 C-89.07086975 502.04755493 -89.07086975 502.04755493 -89.52624512 500.43774414 C-90.14165627 498.2579275 -90.75253092 496.07682881 -91.36083984 493.89501953 C-94.80658741 481.90171249 -99.64432262 473.83658396 -109.12158203 465.77197266 C-111.58796542 463.54255552 -113.69148877 461.1222979 -115.78955078 458.54931641 C-118.3391195 455.19743377 -118.3391195 455.19743377 -122.05126953 453.64306641 C-122.73189453 453.66884766 -123.41251953 453.69462891 -124.11376953 453.72119141 C-124.79439453 453.73666016 -125.47501953 453.75212891 -126.17626953 453.76806641 C-128.32991845 453.92347022 -128.32991845 453.92347022 -131.11376953 454.97119141 C-135.63733974 455.56416878 -138.9814527 455.76117989 -142.80126953 453.09619141 C-158.48885525 431.89675125 -160.687942 409.76111639 -163.33789062 384.30493164 C-165.41528658 364.51172322 -168.1191343 344.82179194 -174.11376953 325.78369141 C-174.44805466 324.72140068 -174.44805466 324.72140068 -174.78909302 323.63764954 C-177.71966907 315.16886377 -182.80592602 311.08345568 -190.11376953 306.53369141 C-190.85981445 306.05851074 -191.60585938 305.58333008 -192.37451172 305.09375 C-197.89697429 301.61773607 -203.52922027 298.49877925 -209.37939453 295.60400391 C-219.64171199 289.47593434 -222.54393081 278.27487937 -225.80517578 267.48681641 C-228.29700496 260.79234995 -232.5622344 256.20430548 -237.55126953 251.28369141 C-238.11136719 250.71585937 -238.67146484 250.14802734 -239.24853516 249.56298828 C-245.10994343 243.72893781 -250.01531272 240.88529238 -258.36376953 240.65869141 C-266.59863295 240.74641299 -272.27818899 244.26529043 -278.11376953 249.97119141 C-283.12121378 255.68992035 -284.15095927 262.08204689 -285.24267578 269.38525391 C-286.432769 274.28438206 -288.50974413 277.67063027 -292.42626953 280.84619141 C-296.53707115 282.56699208 -299.89279622 282.68190286 -304.16455078 281.31494141 C-310.03665761 278.74935047 -313.57261907 274.86888951 -315.94482422 268.86938477 C-316.67727005 266.50088353 -317.31450581 264.12367462 -317.92626953 261.72119141 C-318.43274065 259.8575451 -318.94062617 257.99428277 -319.44970703 256.13134766 C-319.7162207 255.14021973 -319.98273438 254.1490918 -320.25732422 253.12792969 C-328.2476108 218.22812197 -328.2476108 218.22812197 -351.25830078 192.98681641 C-356.3051798 190.26424562 -361.55891241 187.97469477 -366.84521484 185.76025391 C-377.38148899 181.31212398 -382.75670339 175.66474034 -387.92626953 165.59619141 C-392.33902543 157.29050687 -398.30878524 149.79651149 -407.11376953 145.97119141 C-409.83053001 145.6064668 -412.1418354 145.43434925 -414.84423828 145.46728516 C-415.58107346 145.45890625 -416.31790863 145.45052734 -417.07707214 145.44189453 C-418.6616463 145.42454213 -420.24632568 145.41524357 -421.83099365 145.41329956 C-426.05750169 145.40541526 -430.28260009 145.33132531 -434.50830078 145.25244141 C-435.37708862 145.2367662 -436.24587646 145.221091 -437.14099121 145.2049408 C-446.62192277 144.99762591 -456.04595733 144.25065462 -465.48876953 143.40869141 C-466.28310394 143.33834686 -467.07743835 143.26800232 -467.89584351 143.19552612 C-472.30330261 142.80256972 -476.70908745 142.39430518 -481.11376953 141.97119141 C-480.60749334 137.04908723 -479.18293335 134.02163878 -476.43017578 129.93603516 C-475.87354248 129.10219551 -475.87354248 129.10219551 -475.30566406 128.25151062 C-474.10674519 126.46294953 -472.89248085 124.68552934 -471.67626953 122.90869141 C-470.84448418 121.67958102 -470.01302334 120.45025096 -469.18188477 119.22070312 C-463.76997501 111.24735688 -458.25769306 103.40470981 -452.11376953 95.97119141 C-451.67516602 95.43929199 -451.2365625 94.90739258 -450.78466797 94.359375 C-445.47087654 87.93715118 -440.01813283 81.6438674 -434.40283203 75.48291016 C-432.80171834 73.72605673 -431.21423303 71.9567299 -429.63720703 70.17822266 C-418.72330591 57.99264279 -406.80632116 47.11989868 -393.77392578 37.24169922 C-392.1832187 36.02434045 -390.61657674 34.7757288 -389.05126953 33.52587891 C-337.79971905 -7.13542772 -273.55129688 -30.72098879 -209.11376953 -39.02880859 C-208.20804199 -39.14740234 -207.30231445 -39.26599609 -206.36914062 -39.38818359 C-136.18712751 -48.18220053 -62.34311824 -32.49954963 0 0 Z " fill="#ECD5B5" transform="translate(727.11376953125,160.02880859375)"/>
<path d="M0 0 C1.01406921 0.00060425 2.02813843 0.0012085 3.07293701 0.00183105 C18.65609674 0.02698646 34.07083717 0.34933469 49.5625 2.1875 C50.6335498 2.31108887 51.70459961 2.43467773 52.80810547 2.56201172 C142.44993122 13.25990066 227.37470276 51.28954578 333.5625 150.1875 C334.44631475 151.19801789 335.33190641 152.20698296 336.21875 153.21484375 C343.80308118 161.87481632 350.79932211 170.87539685 357.5625 180.1875 C358.28904785 181.18257568 358.28904785 181.18257568 359.03027344 182.19775391 C404.27987604 244.38950899 432.82464423 316.56489251 441.8125 392.9375 C441.93712616 393.99272858 441.93712616 393.99272858 442.06427002 395.0692749 C443.84473873 410.33727515 444.80012225 425.5664311 444.8125 440.9375 C444.81351212 442.0911908 444.81351212 442.0911908 444.81454468 443.26818848 C444.67566794 544.70790994 408.2609895 645.66892488 333.9765625 733.5625 C332.12518148 735.57565218 330.34507082 737.61279932 328.5703125 739.69140625 C323.7972748 745.16224898 318.66217056 750.27386405 313.53027344 755.4050293 C311.82455402 757.11293056 310.12700973 758.82868045 308.4296875 760.54492188 C301.78163778 767.22671405 294.95428333 773.32787914 287.5625 779.1875 C286.47232896 780.11047336 285.38770694 781.04010566 284.3125 781.98046875 C265.367449 798.47665662 244.29540761 812.63735509 222.5625 825.1875 C221.91474609 825.56551758 221.26699219 825.94353516 220.59960938 826.33300781 C166.92100632 857.52883365 104.51147528 878.22773222 42.5625 883.1875 C41.59449463 883.27362549 40.62648926 883.35975098 39.62915039 883.44848633 C28.16466935 884.35662008 16.70962283 884.37361409 5.21508789 884.37280273 C1.7949545 884.37497149 -1.62484596 884.3931377 -5.04492188 884.41210938 C-26.4428972 884.46859304 -47.71132298 883.29804219 -68.8125 879.625 C-69.55187805 879.49911499 -70.2912561 879.37322998 -71.05303955 879.24353027 C-150.29558491 865.64570942 -231.41521403 830.84214735 -290.3046875 775.109375 C-292.58787039 772.95518549 -294.92335012 770.87511232 -297.29296875 768.81640625 C-307.05375131 760.32159858 -316.71888078 751.52146983 -325.203125 741.73828125 C-327.49013499 739.12741146 -329.8475572 736.59861466 -332.22583008 734.07128906 C-346.9555962 718.39819603 -359.81669348 701.26760883 -371.4375 683.1875 C-372.15776367 682.08172607 -372.15776367 682.08172607 -372.89257812 680.95361328 C-382.85667181 665.60343702 -391.3240646 649.56593924 -399.4375 633.1875 C-399.97793945 632.10339844 -400.51837891 631.01929688 -401.07519531 629.90234375 C-429.63104889 572.11030904 -442.65205271 507.50934109 -442.6875 443.3125 C-442.68817474 442.20934448 -442.68884949 441.10618896 -442.68954468 439.96960449 C-442.67139414 421.19957728 -441.91427954 402.80392934 -439.4375 384.1875 C-439.27652832 382.96401855 -439.11555664 381.74053711 -438.94970703 380.47998047 C-428.05734295 301.13627557 -393.91686489 221.31631948 -340.93139648 160.95263672 C-339.83848864 159.66129439 -338.77995735 158.34064038 -337.74243164 157.00439453 C-330.77933831 148.12685345 -322.81564152 140.29777709 -314.81713867 132.36132812 C-312.37162423 129.93414954 -309.93428651 127.49898446 -307.49804688 125.0625 C-305.92495094 123.49431827 -304.3513988 121.92659402 -302.77734375 120.359375 C-302.05941147 119.64255554 -301.34147919 118.92573608 -300.60179138 118.18719482 C-232.19461846 50.41152487 -134.46968697 10.092002 0 0 Z M-60.4375 39.1875 C-61.51427002 39.3692276 -61.51427002 39.3692276 -62.61279297 39.55462646 C-122.12011767 49.64904065 -179.76106775 70.32316851 -229.4375 105.1875 C-229.97745605 105.56438965 -230.51741211 105.9412793 -231.07373047 106.32958984 C-257.37442137 124.72452846 -282.91658341 145.69539558 -303.75390625 170.23046875 C-304.94217118 171.61172334 -306.16168193 172.96639149 -307.40234375 174.30078125 C-314.04897266 181.45221742 -319.92447194 189.1208607 -325.75683594 196.9375 C-326.84891402 198.39952667 -327.94567003 199.85807489 -329.04785156 201.3125 C-338.89284682 214.31784186 -347.30233061 228.06069257 -355.4375 242.1875 C-355.98325684 243.13173828 -356.52901367 244.07597656 -357.09130859 245.04882812 C-388.35632003 299.54231973 -407.42201348 364.44828901 -407.640625 427.421875 C-407.64632507 428.73875305 -407.65202515 430.0556311 -407.65789795 431.41241455 C-407.66830221 434.18559135 -407.67421172 436.95874013 -407.67773438 439.73193359 C-407.68208925 442.51429572 -407.69588585 445.29634254 -407.71875 448.07861328 C-407.90781428 471.59997062 -406.35392018 494.57852687 -401.6875 517.6875 C-401.43073486 518.97881836 -401.17396973 520.27013672 -400.90942383 521.60058594 C-386.7762306 591.47146959 -355.01136879 657.83945579 -306.7734375 710.60546875 C-305.48606344 712.02846917 -304.20539137 713.45800656 -302.95581055 714.91430664 C-298.05570392 720.61928245 -292.82827733 725.94570592 -287.5 731.25 C-286.21706055 732.53874023 -286.21706055 732.53874023 -284.90820312 733.85351562 C-279.914133 738.83996703 -274.82542438 743.6299701 -269.4375 748.1875 C-268.8077124 748.7239917 -268.1779248 749.2604834 -267.52905273 749.81323242 C-245.41623842 768.53012018 -221.72825748 785.04427587 -196.4375 799.1875 C-195.66954102 799.61740234 -194.90158203 800.04730469 -194.11035156 800.49023438 C-150.99068078 824.37779967 -103.10199361 839.1245829 -54.4375 846.1875 C-52.78379395 846.4352417 -52.78379395 846.4352417 -51.09667969 846.68798828 C51.31788995 861.37723314 153.564216 831.59265386 247.375 767.25 C249.11385984 765.90830288 250.84357569 764.55464445 252.5625 763.1875 C253.94888672 762.08728516 253.94888672 762.08728516 255.36328125 760.96484375 C260.72015835 756.64525959 265.90174953 752.16632967 270.98046875 747.5234375 C272.3666688 746.26935637 273.75871631 745.02094807 275.18383789 743.8112793 C281.39506613 738.51492729 287.1325462 732.76902458 292.88989258 726.99047852 C294.621447 725.253564 296.35828359 723.52206111 298.09570312 721.79101562 C303.79568378 716.09511908 309.39577395 710.37957929 314.5625 704.1875 C315.06950439 703.58719971 315.57650879 702.98689941 316.09887695 702.3684082 C333.11820332 682.07144617 347.88506566 660.30151755 360.54638672 637.0390625 C361.50261632 635.29662009 362.48675676 633.56957815 363.47265625 631.84375 C388.89336757 586.32658311 403.56341098 532.84781071 408.5625 481.1875 C408.70389404 479.81851563 408.70389404 479.81851563 408.84814453 478.421875 C409.8540733 467.40884445 409.80618906 456.36221136 409.8125 445.3125 C409.81317474 444.24847961 409.81384949 443.18445923 409.81454468 442.0881958 C409.79666495 424.27230449 409.04116181 406.85249952 406.5625 389.1875 C406.30509033 387.3310083 406.30509033 387.3310083 406.04248047 385.43701172 C395.45983471 311.52872161 364.23998655 238.1230808 314.87060547 181.70605469 C313.59561287 180.22594009 312.36154321 178.71088218 311.12890625 177.1953125 C304.10144133 168.59145607 296.33104494 160.73938553 288.5 152.875 C287.66805618 152.0352916 287.66805618 152.0352916 286.81930542 151.17861938 C280.4535371 144.76609146 274.01719876 138.69253156 266.92285156 133.08251953 C264.65288721 131.2600678 262.50857776 129.35414737 260.375 127.375 C243.33243854 112.1358842 223.39445337 99.4663575 203.5625 88.1875 C202.74072266 87.71521973 201.91894531 87.24293945 201.07226562 86.75634766 C184.42783143 77.25080595 167.28023153 69.42870497 149.5625 62.1875 C148.66192871 61.81898926 147.76135742 61.45047852 146.83349609 61.07080078 C115.61108789 48.49221587 81.03817379 40.61996945 47.5625 37.1875 C46.64726563 37.08598633 45.73203125 36.98447266 44.7890625 36.87988281 C10.07233272 33.1518329 -26.00060227 33.29487776 -60.4375 39.1875 Z " fill="#E9D3B3" transform="translate(558.4375,42.8125)"/>
<path d="M0 0 C1.25829206 3.57488275 0.59399291 5.60935472 -0.4375 9.1875 C-2.06153892 18.62390916 1.85406979 26.89198105 4.890625 35.71875 C13.98531257 62.21961466 15.66597027 93.37324801 12 121 C11.34 121 10.68 121 10 121 C4.68422702 103.58787429 0.79529383 85.95649245 -2.98010254 68.15606689 C-7.07995349 48.06872316 -7.07995349 48.06872316 -13.23022461 28.55029297 C-14 26 -14 26 -13 23 C-8.25 21.875 -8.25 21.875 -6 23 C-5.67 17.72 -5.34 12.44 -5 7 C-4.01 6.67 -3.02 6.34 -2 6 C-0.77479736 2.99152582 -0.77479736 2.99152582 0 0 Z " fill="#E5CFAE" transform="translate(761,530)"/>
<path d="M0 0 C10.57073444 0.61969166 21.12770262 1.3472438 31.6784668 2.24731445 C33.21101101 2.37633768 34.74390999 2.50120159 36.27709961 2.62231445 C38.52803836 2.80036147 40.77764985 2.99052755 43.02734375 3.18359375 C43.71569809 3.23575546 44.40405243 3.28791718 45.11326599 3.34165955 C46.75025891 3.48918326 48.3778442 3.73519891 50 4 C50.495 4.99 50.495 4.99 51 6 C44.14751625 6.75903302 37.32537829 7.22871177 30.4375 7.5 C20.951195 7.90059043 11.47621536 8.40930753 2 9 C7.18691695 6.22129449 11.92365784 5.77342332 17.75 5.4375 C18.79607422 5.37272461 18.79607422 5.37272461 19.86328125 5.30664062 C21.57531922 5.20110404 23.28763561 5.1001009 25 5 C24.31373535 4.91959473 23.6274707 4.83918945 22.92041016 4.75634766 C19.82080639 4.38813511 16.72296558 4.00673983 13.625 3.625 C12.00464844 3.43550781 12.00464844 3.43550781 10.3515625 3.2421875 C8.8046875 3.04882812 8.8046875 3.04882812 7.2265625 2.8515625 C6.27346191 2.73635254 5.32036133 2.62114258 4.33837891 2.50244141 C2 2 2 2 0 0 Z " fill="#B59575" transform="translate(704,671)"/>
<path d="M0 0 C0 0.66 0 1.32 0 2 C-5.75 4 -5.75 4 -8 4 C-10.71226419 6.6591114 -10.71226419 6.6591114 -12 10 C-7.38 10.66 -2.76 11.32 2 12 C2 12.33 2 12.66 2 13 C-6.29614463 12.58077993 -14.56101815 12.03764043 -22.8125 11.0625 C-24.11832031 10.90910156 -25.42414063 10.75570312 -26.76953125 10.59765625 C-30 10 -30 10 -33 8 C-26.63379159 5.77342369 -20.23215414 3.93518204 -13.6875 2.3125 C-12.80771484 2.08755859 -11.92792969 1.86261719 -11.02148438 1.63085938 C-10.17263672 1.41880859 -9.32378906 1.20675781 -8.44921875 0.98828125 C-7.30972778 0.70271362 -7.30972778 0.70271362 -6.1472168 0.41137695 C-4 0 -4 0 0 0 Z " fill="#DDC39F" transform="translate(350,675)"/>
<path d="M0 0 C8.16100511 -0.11454999 16.19643503 0.19972977 24.328125 0.875 C26.00065338 1.00817627 26.00065338 1.00817627 27.70697021 1.14404297 C31.22168733 1.42491922 34.73583219 1.71234116 38.25 2 C40.65230877 2.19314394 43.05465228 2.38585621 45.45703125 2.578125 C51.30509802 3.04709951 57.15271107 3.52142982 63 4 C63.495 5.485 63.495 5.485 64 7 C56.36454007 9.74049239 49.08299944 10.63259093 41 11 C41 10.67 41 10.34 41 10 C43.31 9.34 45.62 8.68 48 8 C48.33 6.68 48.66 5.36 49 4 C48.06994141 4.01740234 48.06994141 4.01740234 47.12109375 4.03515625 C41.69499234 4.09044404 36.34883302 3.91401363 30.9375 3.5 C24.29954077 3.00300408 17.73172381 2.94396229 11.07788086 3.125 C6.90905683 3.19224663 3.74535582 2.88748169 0 1 C0 0.67 0 0.34 0 0 Z " fill="#DCC4A4" transform="translate(765,698)"/>
<path d="M0 0 C0.66 0.66 1.32 1.32 2 2 C4.17715887 2.32374834 4.17715887 2.32374834 6.71826172 2.30297852 C7.70043671 2.31962051 8.68261169 2.33626251 9.69454956 2.35340881 C11.29594284 2.36603004 11.29594284 2.36603004 12.9296875 2.37890625 C14.58074997 2.40439796 14.58074997 2.40439796 16.26516724 2.43040466 C19.80171894 2.48367154 23.3382611 2.52381692 26.875 2.5625 C30.37596665 2.60668461 33.8768501 2.65374884 37.37771606 2.70530701 C39.5570758 2.7367875 41.73650626 2.76381607 43.91598511 2.78553772 C50.11306668 2.86800581 56.23223117 3.20488977 62.40272522 3.79066467 C66.97058117 4.15882503 71.49033787 3.91563937 76.06640625 3.7421875 C79.41046601 4.03607291 79.86942509 4.59880692 82 7 C79.16660786 6.85525062 76.33329131 6.70920055 73.5 6.5625 C72.72785156 6.52318359 71.95570313 6.48386719 71.16015625 6.44335938 C70.35449219 6.40146484 69.54882812 6.35957031 68.71875 6.31640625 C67.36620117 6.24691772 67.36620117 6.24691772 65.98632812 6.17602539 C63.92627666 6.05459822 61.8675532 5.90906792 59.81054688 5.74389648 C45.72306608 4.67404535 31.61937787 4.89112951 17.5 4.9375 C14.82682376 4.9431021 12.15364809 4.94708644 9.48046875 4.95117188 C2.98695892 4.96209445 -3.50651617 4.97875018 -10 5 C-10 4.67 -10 4.34 -10 4 C-6.535 3.505 -6.535 3.505 -3 3 C-3 2.34 -3 1.68 -3 1 C-2.01 0.67 -1.02 0.34 0 0 Z " fill="#AD956B" transform="translate(532,74)"/>
<path d="M0 0 C0.33 0 0.66 0 1 0 C1 5.94 1 11.88 1 18 C-2.16982793 16.41508603 -3.80977082 14.82424288 -6 12 C-6.42829982 8.62520381 -6.29558298 5.38278297 -6 2 C-3.525 2.495 -3.525 2.495 -1 3 C-0.67 2.01 -0.34 1.02 0 0 Z " fill="#EAD3B3" transform="translate(772,622)"/>
<path d="M0 0 C0.33 0.99 0.66 1.98 1 3 C1.66 3 2.32 3 3 3 C3 4.98 3 6.96 3 9 C-7.89 9 -18.78 9 -30 9 C-30 8.34 -30 7.68 -30 7 C-19.77 7 -9.54 7 1 7 C0.67 4.69 0.34 2.38 0 0 Z " fill="#B89D7E" transform="translate(639,662)"/>
<path d="M0 0 C0.33 0 0.66 0 1 0 C1.02929984 4.31248547 1.04689903 8.62494493 1.0625 12.9375 C1.07087891 14.14986328 1.07925781 15.36222656 1.08789062 16.61132812 C1.10565466 23.16625712 0.88995726 29.50401275 0 36 C-0.66 36 -1.32 36 -2 36 C-2.69821417 33.89936424 -3.38324472 31.79434263 -4.0625 29.6875 C-4.44535156 28.51574219 -4.82820312 27.34398437 -5.22265625 26.13671875 C-6 23 -6 23 -5 20 C-2.5 22.5 -2.5 22.5 0 25 C0 16.75 0 8.5 0 0 Z " fill="#C2B08D" transform="translate(773,615)"/>
<path d="M0 0 C0.99 0.66 1.98 1.32 3 2 C3.1875 4.625 3.1875 4.625 3 7 C2.34 7 1.68 7 1 7 C0.7525 7.61875 0.505 8.2375 0.25 8.875 C-1.28027224 11.4764628 -2.28075805 11.75061856 -5 13 C-7.37544706 14.60917381 -9.68932394 16.29944627 -12 18 C-10.18633597 13.87235084 -7.50853382 10.37940795 -4.875 6.75 C-4.17310547 5.77546875 -4.17310547 5.77546875 -3.45703125 4.78125 C-2.30725718 3.18564517 -1.15397434 1.59256975 0 0 Z " fill="#CFB190" transform="translate(898,713)"/>
<path d="M0 0 C12.79249621 0.5314934 25.33966845 2.13911332 38 4 C38 4.66 38 5.32 38 6 C36.1461748 6.05479286 34.2918612 6.09314594 32.4375 6.125 C31.40496094 6.14820313 30.37242187 6.17140625 29.30859375 6.1953125 C25.62087178 5.97761935 22.5448545 5.02474381 19 4 C15.30945489 3.441666 11.59302321 3.12831488 7.87695312 2.7890625 C2.20758929 2.20758929 2.20758929 2.20758929 0 0 Z " fill="#C9B192" transform="translate(704,671)"/>
<path d="M0 0 C0.33 0 0.66 0 1 0 C1.30873438 5.01693365 0.26671727 8.69319924 -1.5 13.375 C-1.73847656 14.01566406 -1.97695312 14.65632813 -2.22265625 15.31640625 C-2.80641312 16.88087465 -3.40199724 18.44092137 -4 20 C-5.55078125 18.390625 -5.55078125 18.390625 -7 16 C-6.85546875 12.984375 -6.85546875 12.984375 -6.1875 9.75 C-5.97480469 8.67234375 -5.76210937 7.5946875 -5.54296875 6.484375 C-5.36378906 5.66453125 -5.18460938 4.8446875 -5 4 C-4.34 4 -3.68 4 -3 4 C-2.67 3.34 -2.34 2.68 -2 2 C-1.34 1.34 -0.68 0.68 0 0 Z " fill="#DDC1A2" transform="translate(174,342)"/>
<path d="M0 0 C10.80662008 -0.29788539 21.49130527 0.62449726 32.25 1.5 C34.07418458 1.64496187 35.89840318 1.78949638 37.72265625 1.93359375 C42.14884477 2.28414024 46.57453375 2.64045477 51 3 C51 3.33 51 3.66 51 4 C44.2408261 4.10258443 37.55479842 4.01695809 30.8125 3.5 C24.2161794 2.99892674 17.69005994 2.94512083 11.07739258 3.125 C6.90872988 3.1922591 3.74519467 2.88740047 0 1 C0 0.67 0 0.34 0 0 Z " fill="#B8A280" transform="translate(765,698)"/>
<path d="M0 0 C0.80078125 1.5859375 0.80078125 1.5859375 1 4 C-0.52429668 6.38816307 -2.02295493 8.45526742 -3.8125 10.625 C-4.27720703 11.21023437 -4.74191406 11.79546875 -5.22070312 12.3984375 C-7.06115317 14.70098046 -8.91459778 16.91459778 -11 19 C-11.2411401 14.90061825 -10.7115067 11.74901467 -9 8 C-6.4375 6.25 -6.4375 6.25 -4 5 C-3.67 4.34 -3.34 3.68 -3 3 C-2.34 3 -1.68 3 -1 3 C-0.67 2.01 -0.34 1.02 0 0 Z " fill="#E5C3A6" transform="translate(235,233)"/>
<path d="M0 0 C0.99 0.33 1.98 0.66 3 1 C-1.98404168 7.03331362 -7.41915303 12.5184171 -13 18 C-13.33 17.34 -13.66 16.68 -14 16 C-14.66 15.67 -15.32 15.34 -16 15 C-14.68 14.67 -13.36 14.34 -12 14 C-12 13.34 -12 12.68 -12 12 C-11.34 12 -10.68 12 -10 12 C-10 11.34 -10 10.68 -10 10 C-9.34 10 -8.68 10 -8 10 C-8 9.34 -8 8.68 -8 8 C-7.34 8 -6.68 8 -6 8 C-6 7.34 -6 6.68 -6 6 C-5.34 6 -4.68 6 -4 6 C-4 5.34 -4 4.68 -4 4 C-3.34 4 -2.68 4 -2 4 C-2 3.34 -2 2.68 -2 2 C-1.34 2 -0.68 2 0 2 C0 1.34 0 0.68 0 0 Z " fill="#D1B89A" transform="translate(275,188)"/>
<path d="M0 0 C1.26823485 3.65393537 0.75715321 6.49070026 0.0625 10.25 C-0.13214844 11.32765625 -0.32679688 12.4053125 -0.52734375 13.515625 C-0.76130859 14.74539063 -0.76130859 14.74539063 -1 16 C-1.99 16.33 -2.98 16.66 -4 17 C-5.60725635 13.78548731 -5.05748185 10.56387464 -5 7 C-4.01 6.67 -3.02 6.34 -2 6 C-0.77479736 2.99152582 -0.77479736 2.99152582 0 0 Z M-6 15 C-5 19 -5 19 -5 19 Z " fill="#D8C1A3" transform="translate(761,530)"/>
<path d="M0 0 C-4.58884325 1.9327128 -9.18638112 3.76562087 -13.93359375 5.2734375 C-14.94184204 5.59501831 -14.94184204 5.59501831 -15.97045898 5.9230957 C-17.30953163 6.34496883 -18.6514969 6.75778175 -19.99633789 7.16088867 C-23.62807218 8.30728017 -24.81338964 8.72008446 -27 12 C-29.31 11.34 -31.62 10.68 -34 10 C-28.90438066 7.24811631 -23.33783742 5.71765691 -17.84521484 3.94897461 C-15.87208064 3.31155691 -13.90289206 2.66282911 -11.93359375 2.01367188 C-10.69480469 1.61341797 -9.45601562 1.21316406 -8.1796875 0.80078125 C-7.04257324 0.43122314 -5.90545898 0.06166504 -4.73388672 -0.3190918 C-2 -1 -2 -1 0 0 Z " fill="#B89A7C" transform="translate(702,868)"/>
<path d="M0 0 C0.66 0.99 1.32 1.98 2 3 C1.67 3.99 1.34 4.98 1 6 C-5.14154225 5.41509121 -11.00679849 4.45933748 -17 3 C-17 2.67 -17 2.34 -17 2 C-14.36 1.67 -11.72 1.34 -9 1 C-9 1.66 -9 2.32 -9 3 C-8.4225 2.649375 -7.845 2.29875 -7.25 1.9375 C-4.64198224 0.85082593 -3.60582371 1.06934867 -1 2 C-0.67 1.34 -0.34 0.68 0 0 Z " fill="#D4BA95" transform="translate(494,838)"/>
<path d="M0 0 C-2.79790503 2.79790503 -5.17979846 2.4115071 -9.00390625 2.65625 C-9.99197266 2.82640625 -9.99197266 2.82640625 -11 3 C-11.33 3.66 -11.66 4.32 -12 5 C-11.01 5.66 -10.02 6.32 -9 7 C-15.75 6.125 -15.75 6.125 -18 5 C-18 4.01 -18 3.02 -18 2 C-11.85221129 0.3722167 -6.35987804 -0.20190089 0 0 Z " fill="#CFBC93" transform="translate(393,766)"/>
<path d="M0 0 C1.125 3.75 1.125 3.75 0 6 C-0.66 5.67 -1.32 5.34 -2 5 C-1.34 6.32 -0.68 7.64 0 9 C-2 12 -2 12 -5 13 C-2.03 13.495 -2.03 13.495 1 14 C1 14.33 1 14.66 1 15 C-1.64 15 -4.28 15 -7 15 C-6.68383092 8.83470299 -3.50784939 4.82731567 0 0 Z " fill="#CBAF8C" transform="translate(253,287)"/>
<path d="M0 0 C1.60568666 0.28317926 3.20952047 0.57687791 4.8125 0.875 C6.15248047 1.11863281 6.15248047 1.11863281 7.51953125 1.3671875 C10 2 10 2 13 4 C12.01 4 11.02 4 10 4 C10 4.66 10 5.32 10 6 C7.03 6 4.06 6 1 6 C0 1.125 0 1.125 0 0 Z " fill="#DEC9A2" transform="translate(657,133)"/>
<path d="M0 0 C0.66 0 1.32 0 2 0 C2.185625 0.78375 2.37125 1.5675 2.5625 2.375 C3.83961627 5.39376342 3.83961627 5.39376342 7.625 6.3125 C8.73875 6.539375 9.8525 6.76625 11 7 C11 6.34 11 5.68 11 5 C10.34 5 9.68 5 9 5 C9 4.34 9 3.68 9 3 C9.99 3.33 10.98 3.66 12 4 C12 4.66 12 5.32 12 6 C13.32 6.33 14.64 6.66 16 7 C11.19176407 8.60274531 6.10146778 8.97385092 1.4375 6.8125 C-0.4433581 4.44098326 -0.31898502 2.95061143 0 0 Z " fill="#DDC7A3" transform="translate(583,607)"/>
<path d="M0 0 C-0.63808594 0.12117188 -1.27617187 0.24234375 -1.93359375 0.3671875 C-2.75988281 0.53476563 -3.58617187 0.70234375 -4.4375 0.875 C-5.26121094 1.03742188 -6.08492188 1.19984375 -6.93359375 1.3671875 C-7.61550781 1.57601562 -8.29742187 1.78484375 -9 2 C-9.33 2.66 -9.66 3.32 -10 4 C-10.99 3.67 -11.98 3.34 -13 3 C-13.99 4.485 -13.99 4.485 -15 6 C-18.36327963 5.43945339 -20.99112219 4.58158962 -24 3 C-20.75290806 2.29825244 -17.50199748 1.61611931 -14.25 0.9375 C-13.32960938 0.73833984 -12.40921875 0.53917969 -11.4609375 0.33398438 C-10.57148438 0.15029297 -9.68203125 -0.03339844 -8.765625 -0.22265625 C-7.94868164 -0.39547119 -7.13173828 -0.56828613 -6.29003906 -0.74633789 C-3.89799506 -1.01129884 -2.27474929 -0.73312703 0 0 Z " fill="#D2BF99" transform="translate(502,125)"/>
<path d="M0 0 C0.33 0.66 0.66 1.32 1 2 C2.65 1.34 4.3 0.68 6 0 C5.67 1.98 5.34 3.96 5 6 C4.030625 6.268125 3.06125 6.53625 2.0625 6.8125 C1.051875 7.204375 0.04125 7.59625 -1 8 C-1.33 8.99 -1.66 9.98 -2 11 C-2.66 11 -3.32 11 -4 11 C-3.52269162 9.5410574 -3.04308958 8.08286504 -2.5625 6.625 C-2.29566406 5.81289063 -2.02882813 5.00078125 -1.75390625 4.1640625 C-1 2 -1 2 0 0 Z " fill="#D3BB96" transform="translate(935,645)"/>
<path d="M0 0 C7.55607786 1.10355089 14.74822618 2.59343789 22 5 C21.01 5.33 20.02 5.66 19 6 C18.67 6.66 18.34 7.32 18 8 C18 7.01 18 6.02 18 5 C16.35 5.66 14.7 6.32 13 7 C13 6.01 13 5.02 13 4 C10.69 3.67 8.38 3.34 6 3 C6.33 3.99 6.66 4.98 7 6 C6.01 6 5.02 6 4 6 C4 5.01 4 4.02 4 3 C2.05990478 1.29467677 2.05990478 1.29467677 0 0 Z " fill="#BDA080" transform="translate(727,738)"/>
<path d="M0 0 C2.4375 2 2.4375 2 4 4 C-1.46108889 5.4002792 -5.69276568 4.42705634 -11 3 C-7.49723787 -0.36265164 -4.75045142 -0.59380643 0 0 Z " fill="#E0CAAD" transform="translate(645,82)"/>
<path d="M0 0 C4.35990873 -0.07418046 8.71948279 -0.12861544 13.07983398 -0.16479492 C14.56297199 -0.17987768 16.04606544 -0.20034689 17.52905273 -0.22631836 C19.66140745 -0.26272616 21.79317235 -0.27973073 23.92578125 -0.29296875 C25.85031128 -0.31653442 25.85031128 -0.31653442 27.8137207 -0.34057617 C31 0 31 0 32.94213867 1.51831055 C33.29123291 2.00726807 33.64032715 2.49622559 34 3 C22.65928158 2.42624998 11.3274903 1.79580276 0 1 C0 0.67 0 0.34 0 0 Z " fill="#A48A6A" transform="translate(580,78)"/>
<path d="M0 0 C2.40034102 3.60051153 4.32187705 6.96144535 3.625 11.375 C3.41875 11.91125 3.2125 12.4475 3 13 C2.67 12.34 2.34 11.68 2 11 C1.01 11.495 1.01 11.495 0 12 C-0.66 11.67 -1.32 11.34 -2 11 C-2.19622241 6.78121808 -1.80230168 3.82989106 0 0 Z " fill="#E0CCA7" transform="translate(166,599)"/>
<path d="M0 0 C-2.4428997 4.76365442 -2.4428997 4.76365442 -5.0625 5.875 C-7 6 -7 6 -9 5 C-9 4.34 -9 3.68 -9 3 C-10.65 3 -12.3 3 -14 3 C-9.40655732 0.4480874 -5.21536095 -0.14901031 0 0 Z " fill="#DFCBA0" transform="translate(447,818)"/>
<path d="M0 0 C0.66 0.33 1.32 0.66 2 1 C0.59419724 2.65512248 -0.82506266 4.29882206 -2.25 5.9375 C-3.03890625 6.85402344 -3.8278125 7.77054688 -4.640625 8.71484375 C-6.97129181 10.97219489 -7.89156646 11.57851749 -11 12 C-12.3479743 12.63654342 -13.68596724 13.29605388 -15 14 C-12.11461208 10.13220619 -9.01811193 7.19301785 -5.25 4.1875 C-4.26515625 3.39730469 -3.2803125 2.60710937 -2.265625 1.79296875 C-1.51796875 1.20128906 -0.7703125 0.60960937 0 0 Z " fill="#D0BA98" transform="translate(332,198)"/>
<path d="M0 0 C0.73605469 0.00451172 1.47210938 0.00902344 2.23046875 0.01367188 C4.02868158 0.02534858 5.82685197 0.04327989 7.625 0.0625 C7.625 0.3925 7.625 0.7225 7.625 1.0625 C-0.79 1.5575 -0.79 1.5575 -9.375 2.0625 C-8.715 3.3825 -8.055 4.7025 -7.375 6.0625 C-9.685 5.4025 -11.995 4.7425 -14.375 4.0625 C-14.375 3.0725 -14.375 2.0825 -14.375 1.0625 C-9.51770355 0.08950844 -4.9249375 -0.05788805 0 0 Z " fill="#CCB38E" transform="translate(293.375,721.9375)"/>
<path d="M0 0 C-0.99 1.98 -1.98 3.96 -3 6 C-5.9375 5.625 -5.9375 5.625 -9 5 C-9.33 4.34 -9.66 3.68 -10 3 C-9 1 -9 1 -7.25 0.375 C-4.79549443 -0.03408426 -2.4840589 -0.06900164 0 0 Z " fill="#F1DFC0" transform="translate(297,723)"/>
<path d="M0 0 C3 3.75 3 3.75 3 6 C3.99 7.485 3.99 7.485 5 9 C0.02790438 7.23570801 -4.43438061 4.6060834 -9 2 C-6.01386614 1.24070528 -3.02485781 0.5881668 0 0 Z " fill="#C8B28C" transform="translate(531,456)"/>
<path d="M0 0 C0.8971875 0.5259375 0.8971875 0.5259375 1.8125 1.0625 C1.1525 1.7225 0.4925 2.3825 -0.1875 3.0625 C2.1225 3.3925 4.4325 3.7225 6.8125 4.0625 C6.8125 4.3925 6.8125 4.7225 6.8125 5.0625 C-1.6025 5.5575 -1.6025 5.5575 -10.1875 6.0625 C-10.1875 5.7325 -10.1875 5.4025 -10.1875 5.0625 C-8.2075 4.7325 -6.2275 4.4025 -4.1875 4.0625 C-4.5175 2.7425 -4.8475 1.4225 -5.1875 0.0625 C-2.1875 -0.9375 -2.1875 -0.9375 0 0 Z " fill="#C7B091" transform="translate(514.1875,74.9375)"/>
<path d="M0 0 C13.61741547 -0.20426123 13.61741547 -0.20426123 20 1 C20.33 1.66 20.66 2.32 21 3 C16.71 3 12.42 3 8 3 C8 2.34 8 1.68 8 1 C5.36 1 2.72 1 0 1 C0 0.67 0 0.34 0 0 Z " fill="#BC9F80" transform="translate(734,674)"/>
<path d="M0 0 C1.74627478 2.61941217 2.38722388 4.03824877 3 7 C2.360625 7.12375 1.72125 7.2475 1.0625 7.375 C0.0415625 7.684375 0.0415625 7.684375 -1 8 C-1.33 8.66 -1.66 9.32 -2 10 C-4.5625 10.625 -4.5625 10.625 -7 11 C-5.22054913 6.95579349 -2.60470327 3.53921513 0 0 Z " fill="#D8BA93" transform="translate(274,257)"/>
<path d="M0 0 C0.99 0 1.98 0 3 0 C1.52278578 3.45201639 -0.43794001 5.64961936 -3.125 8.25 C-3.84945313 8.95640625 -4.57390625 9.6628125 -5.3203125 10.390625 C-5.87460937 10.92171875 -6.42890625 11.4528125 -7 12 C-7.33 10.68 -7.66 9.36 -8 8 C-7.01 8 -6.02 8 -5 8 C-4.67 6.68 -4.34 5.36 -4 4 C-3.34 4 -2.68 4 -2 4 C-1.34 2.68 -0.68 1.36 0 0 Z " fill="#CBB794" transform="translate(290,174)"/>
<path d="M0 0 C4.97209562 1.76429199 9.43438061 4.3939166 14 7 C13.01 7.495 13.01 7.495 12 8 C11.236875 7.67 10.47375 7.34 9.6875 7 C6.61543898 5.85690753 5.10008821 6.11426051 2 7 C1.67 6.34 1.34 5.68 1 5 C1.99 5 2.98 5 4 5 C4 4.34 4 3.68 4 3 C2.68 3.33 1.36 3.66 0 4 C0 2.68 0 1.36 0 0 Z " fill="#BFA787" transform="translate(353,837)"/>
<path d="M0 0 C2.05078125 0.03255208 4.1015625 0.06510417 6.15234375 0.09765625 C6.15234375 0.75765625 6.15234375 1.41765625 6.15234375 2.09765625 C5.49234375 2.09765625 4.83234375 2.09765625 4.15234375 2.09765625 C4.15234375 3.08765625 4.15234375 4.07765625 4.15234375 5.09765625 C1.84234375 4.76765625 -0.46765625 4.43765625 -2.84765625 4.09765625 C-2.84765625 0.15051037 -2.84765625 0.15051037 0 0 Z " fill="#F4E1C7" transform="translate(383.84765625,767.90234375)"/>
<path d="M0 0 C2 1.75 2 1.75 4 4 C4 5.32 4 6.64 4 8 C1.69 7.67 -0.62 7.34 -3 7 C-3 7.99 -3 8.98 -3 10 C-3.66 10 -4.32 10 -5 10 C-3.66511872 6.40608886 -2.03977277 3.24509304 0 0 Z " fill="#DBBFA5" transform="translate(915,686)"/>
<path d="M0 0 C2.475 0.99 2.475 0.99 5 2 C5 1.34 5 0.68 5 0 C5.66 0 6.32 0 7 0 C7 0.66 7 1.32 7 2 C8.32 2.66 9.64 3.32 11 4 C10.34 4.66 9.68 5.32 9 6 C9.99 7.32 10.98 8.64 12 10 C8.78727751 8.56006357 6.3793336 6.76981628 3.75 4.4375 C3.04359375 3.81746094 2.3371875 3.19742188 1.609375 2.55859375 C1.07828125 2.04425781 0.5471875 1.52992188 0 1 C0 0.67 0 0.34 0 0 Z " fill="#C5B093" transform="translate(814,166)"/>
<path d="M0 0 C0.99 0.66 1.98 1.32 3 2 C3.1875 4.625 3.1875 4.625 3 7 C2.34 7 1.68 7 1 7 C0.67 7.99 0.34 8.98 0 10 C-1.5625 8.75 -1.5625 8.75 -3 7 C-2.71483972 3.9582904 -1.73969465 2.60954198 0 0 Z " fill="#DBC39C" transform="translate(898,713)"/>
<path d="M0 0 C0.33 0 0.66 0 1 0 C1.53181175 2.24743045 2.05007126 4.49807102 2.5625 6.75 C2.85253906 8.00296875 3.14257812 9.2559375 3.44140625 10.546875 C3.93444283 13.59473748 4.07666879 15.17641828 3 18 C3 17.01 3 16.02 3 15 C2.01 15 1.02 15 0 15 C0 14.34 0 13.68 0 13 C-0.66 12.67 -1.32 12.34 -2 12 C-1.01 11.67 -0.02 11.34 1 11 C0.67 10.01 0.34 9.02 0 8 C-0.12781786 5.32605036 -0.04391871 2.67904143 0 0 Z " fill="#C9AC87" transform="translate(157,562)"/>
<path d="M0 0 C2.50357861 0.8345262 4.66785852 1.79371992 7 3 C1.25 8 1.25 8 -1 8 C-1.625 5.125 -1.625 5.125 -2 2 C-1.34 1.34 -0.68 0.68 0 0 Z " fill="#DAC5A7" transform="translate(300,162)"/>
<path d="M0 0 C3.37503669 1.1858237 5.64722731 2.27573689 8 5 C3.74433453 6.16063604 0.3164922 5.76173392 -4 5 C-4 4.34 -4 3.68 -4 3 C-2.68 2.67 -1.36 2.34 0 2 C0 1.34 0 0.68 0 0 Z " fill="#D0BC99" transform="translate(345,832)"/>
<path d="M0 0 C0.80824219 0.10183594 1.61648438 0.20367188 2.44921875 0.30859375 C3.06410156 0.39238281 3.67898438 0.47617187 4.3125 0.5625 C3.9825 1.5525 3.6525 2.5425 3.3125 3.5625 C-0.3175 3.2325 -3.9475 2.9025 -7.6875 2.5625 C-7.6875 1.9025 -7.6875 1.2425 -7.6875 0.5625 C-4.59271121 -0.46909626 -3.16118607 -0.41232862 0 0 Z " fill="#EAD2AF" transform="translate(330.6875,681.4375)"/>
<path d="M0 0 C0.33 0 0.66 0 1 0 C2.06059488 7.68931285 2.09928082 15.24506486 2 23 C1.67 23 1.34 23 1 23 C0.67 19.7 0.34 16.4 0 13 C-0.33 13 -0.66 13 -1 13 C-1.07654536 8.48382401 -1.10228696 4.40914783 0 0 Z " fill="#D6B99B" transform="translate(922,445)"/>
<path d="M0 0 C0.66 0 1.32 0 2 0 C2.33 1.32 2.66 2.64 3 4 C3.66 2.68 4.32 1.36 5 0 C5.66 2.64 6.32 5.28 7 8 C6.01 7.67 5.02 7.34 4 7 C4 7.66 4 8.32 4 9 C3.34 9 2.68 9 2 9 C0.14223235 5.86501708 -0.20140476 3.62528568 0 0 Z " fill="#D8C19F" transform="translate(170,623)"/>
<path d="M0 0 C2.97 0.99 5.94 1.98 9 3 C8 5 8 5 6.1875 5.6875 C3.81180233 6.02688538 2.26664171 5.72856341 0 5 C0 3.35 0 1.7 0 0 Z " fill="#E2CEA7" transform="translate(695,146)"/>
<path d="M0 0 C0.66 0.66 1.32 1.32 2 2 C4.20250992 2.46006346 4.20250992 2.46006346 6.625 2.625 C7.44226563 2.69976562 8.25953125 2.77453125 9.1015625 2.8515625 C9.72804688 2.90054688 10.35453125 2.94953125 11 3 C11 3.33 11 3.66 11 4 C0.605 4.495 0.605 4.495 -10 5 C-10 4.67 -10 4.34 -10 4 C-6.535 3.505 -6.535 3.505 -3 3 C-3 2.34 -3 1.68 -3 1 C-2.01 0.67 -1.02 0.34 0 0 Z " fill="#CAB490" transform="translate(532,74)"/>
<path d="M0 0 C-0.99 0 -1.98 0 -3 0 C-3 0.66 -3 1.32 -3 2 C0.96 2.33 4.92 2.66 9 3 C9 3.33 9 3.66 9 4 C6.56152549 3.88602456 4.12486826 3.75929026 1.6875 3.625 C0.65206055 3.57859375 0.65206055 3.57859375 -0.40429688 3.53125 C-4.06990789 3.31875081 -5.87900792 3.08066139 -9 1 C-5.57367167 -0.61798838 -3.61944899 -1.34053666 0 0 Z " fill="#C7AB8A" transform="translate(326,682)"/>
<path d="M0 0 C0.66 0.33 1.32 0.66 2 1 C0.25904321 2.82200133 -1.49177132 4.63229575 -3.25 6.4375 C-3.98669922 7.2119043 -3.98669922 7.2119043 -4.73828125 8.00195312 C-9.30164195 12.65658104 -9.30164195 12.65658104 -13 13 C-9.57338216 8.28840047 -5.40481284 4.74963472 -1 1 C-0.67 0.67 -0.34 0.34 0 0 Z " fill="#C2A27C" transform="translate(832,787)"/>
<path d="M0 0 C0.99 0 1.98 0 3 0 C3 0.66 3 1.32 3 2 C2.34 2 1.68 2 1 2 C1 2.66 1 3.32 1 4 C-9.55808656 3.03644647 -9.55808656 3.03644647 -14 2 C-14 1.67 -14 1.34 -14 1 C-13.07316406 1.01160156 -12.14632813 1.02320313 -11.19140625 1.03515625 C-9.39509766 1.04869141 -9.39509766 1.04869141 -7.5625 1.0625 C-5.77005859 1.07990234 -5.77005859 1.07990234 -3.94140625 1.09765625 C-1.11126659 1.33901792 -1.11126659 1.33901792 0 0 Z " fill="#C8B08F" transform="translate(436,779)"/>
<path d="M0 0 C6.6 0 13.2 0 20 0 C20 0.33 20 0.66 20 1 C19.03578125 1.06058594 18.0715625 1.12117187 17.078125 1.18359375 C15.81484375 1.26738281 14.5515625 1.35117187 13.25 1.4375 C11.99703125 1.51871094 10.7440625 1.59992187 9.453125 1.68359375 C6.16084995 1.89285146 6.16084995 1.89285146 3.671875 2.59765625 C2 3 2 3 0 2 C0 1.34 0 0.68 0 0 Z " fill="#A99576" transform="translate(599,719)"/>
<path d="M0 0 C0.66 0.99 1.32 1.98 2 3 C1.02391783 5.92824652 -0.10786631 7.61426621 -2 10 C-3.32 8.02 -4.64 6.04 -6 4 C-5.67 3.34 -5.34 2.68 -5 2 C-3.02 2.495 -3.02 2.495 -1 3 C-0.67 2.01 -0.34 1.02 0 0 Z " fill="#CAB597" transform="translate(634,632)"/>
<path d="M0 0 C2 3 2 3 2 5 C1.01 5 0.02 5 -1 5 C-1 5.66 -1 6.32 -1 7 C-1.99 7.495 -1.99 7.495 -3 8 C-4.0409066 9.64142963 -5.04504326 11.30712215 -6 13 C-6.33 12.34 -6.66 11.68 -7 11 C-5.56640625 8.3984375 -5.56640625 8.3984375 -3.5625 5.375 C-2.90378906 4.37210938 -2.24507813 3.36921875 -1.56640625 2.3359375 C-1.04949219 1.56507813 -0.53257812 0.79421875 0 0 Z " fill="#D5C49C" transform="translate(395,585)"/>
<path d="M0 0 C0.66 0.33 1.32 0.66 2 1 C2.33 1.99 2.66 2.98 3 4 C1.35 4.33 -0.3 4.66 -2 5 C-2 5.66 -2 6.32 -2 7 C-3.65 6.67 -5.3 6.34 -7 6 C-4.74259377 3.66475218 -2.7194239 1.81294927 0 0 Z " fill="#DAC3A5" transform="translate(357,180)"/>
<path d="M0 0 C-0.6875 1.9375 -0.6875 1.9375 -2 4 C-4.3125 4.5625 -4.3125 4.5625 -7 5 C-8.2684375 5.804375 -8.2684375 5.804375 -9.5625 6.625 C-12 8 -12 8 -14.15234375 7.5859375 C-14.76207031 7.39257812 -15.37179687 7.19921875 -16 7 C-13.71070947 5.82845707 -11.41881638 4.66261926 -9.125 3.5 C-8.47402344 3.16613281 -7.82304688 2.83226562 -7.15234375 2.48828125 C-2.2265625 0 -2.2265625 0 0 0 Z " fill="#CAB079" transform="translate(749,846)"/>
<path d="M0 0 C0.99 0.33 1.98 0.66 3 1 C2.875 2.75 2.875 2.75 2 5 C-1.0625 7.25 -1.0625 7.25 -4 9 C-4.66 8.67 -5.32 8.34 -6 8 C-5.67 7.34 -5.34 6.68 -5 6 C-4.01 6 -3.02 6 -2 6 C-2 5.01 -2 4.02 -2 3 C-1.34 2.34 -0.68 1.68 0 1 C0 0.67 0 0.34 0 0 Z " fill="#CDBC99" transform="translate(685,819)"/>
<path d="M0 0 C2.97 0.495 2.97 0.495 6 1 C6 2.65 6 4.3 6 6 C5.67 6 5.34 6 5 6 C4.67 7.65 4.34 9.3 4 11 C2.03698408 7.49461443 1.04097612 3.86648272 0 0 Z " fill="#C6B28F" transform="translate(846,480)"/>
<path d="M0 0 C0 4.15560231 -2.2820452 5.84099329 -5 8.6875 C-5.47695312 9.19861328 -5.95390625 9.70972656 -6.4453125 10.23632812 C-7.62359915 11.49709484 -8.81095253 12.74937686 -10 14 C-10.66 13.67 -11.32 13.34 -12 13 C-8.04 8.71 -4.08 4.42 0 0 Z " fill="#DAC2A7" transform="translate(233,186)"/>
<path d="M0 0 C0.66 0.33 1.32 0.66 2 1 C2 1.99 2 2.98 2 4 C2.99 4.33 3.98 4.66 5 5 C-5.55808656 4.03644647 -5.55808656 4.03644647 -10 3 C-10 2.67 -10 2.34 -10 2 C-8.72125 2.04125 -7.4425 2.0825 -6.125 2.125 C-3.98128508 2.24212873 -3.98128508 2.24212873 -2 2 C-1.34 1.34 -0.68 0.68 0 0 Z " fill="#CAB28B" transform="translate(458,783)"/>
<path d="M0 0 C0.25 2.3125 0.25 2.3125 0 5 C-2.04424538 6.97610386 -3.1176825 8 -6 8 C-5.1875 4.5625 -5.1875 4.5625 -4 1 C-1 0 -1 0 0 0 Z " fill="#EEDABC" transform="translate(867,757)"/>
<path d="M0 0 C6.875 3.75 6.875 3.75 8 6 C5.36 6.33 2.72 6.66 0 7 C0 4.66666667 0 2.33333333 0 0 Z " fill="#D9BFA2" transform="translate(777,192)"/>
<path d="M0 0 C0.66 0.66 1.32 1.32 2 2 C2.66 2.33 3.32 2.66 4 3 C1.69 4.65 -0.62 6.3 -3 8 C-4 5 -4 5 -4 2 C-2.68 1.34 -1.36 0.68 0 0 Z " fill="#C7B092" transform="translate(311,156)"/>
<path d="M0 0 C0.33 0.66 0.66 1.32 1 2 C3.64 2 6.28 2 9 2 C9 2.33 9 2.66 9 3 C7.43883181 3.33951619 5.87598662 3.67132544 4.3125 4 C3.00732422 4.2784375 3.00732422 4.2784375 1.67578125 4.5625 C-0.93712964 4.98972047 -3.35813038 5.07616201 -6 5 C-5.38125 4.9175 -4.7625 4.835 -4.125 4.75 C-1.81562433 4.18741541 -1.81562433 4.18741541 -0.75 1.9375 C-0.5025 1.298125 -0.255 0.65875 0 0 Z " fill="#B29D80" transform="translate(472,83)"/>
<path d="M0 0 C0.66 0.99 1.32 1.98 2 3 C1.5390625 5.26171875 1.5390625 5.26171875 0.625 7.6875 C0.18027344 8.89986328 0.18027344 8.89986328 -0.2734375 10.13671875 C-0.51320313 10.75160156 -0.75296875 11.36648438 -1 12 C-2.0625 10.125 -2.0625 10.125 -3 8 C-2.67 7.34 -2.34 6.68 -2 6 C-1.34 6 -0.68 6 0 6 C-0.2784375 4.7934375 -0.2784375 4.7934375 -0.5625 3.5625 C-0.706875 2.716875 -0.85125 1.87125 -1 1 C-0.67 0.67 -0.34 0.34 0 0 Z " fill="#D3BC9C" transform="translate(896,618)"/>
<path d="M0 0 C0 3.41321235 -0.66867466 4.39472885 -2.5 7.1875 C-2.9640625 7.90292969 -3.428125 8.61835938 -3.90625 9.35546875 C-4.2671875 9.89816406 -4.628125 10.44085938 -5 11 C-5.66 10.01 -6.32 9.02 -7 8 C-6.01 7.67 -5.02 7.34 -4 7 C-3.896875 6.21625 -3.79375 5.4325 -3.6875 4.625 C-3 2 -3 2 0 0 Z " fill="#CBB29B" transform="translate(219,257)"/>
<path d="M0 0 C0.66 0.33 1.32 0.66 2 1 C1.38125 1.556875 0.7625 2.11375 0.125 2.6875 C-2.06106379 5.06645178 -2.98785699 6.96357096 -4 10 C-4.99 9.67 -5.98 9.34 -7 9 C-5.64978174 4.58110387 -3.73884332 2.65654657 0 0 Z " fill="#D4BE9A" transform="translate(345,188)"/>
<path d="M0 0 C2.64 0.33 5.28 0.66 8 1 C7.01 2.485 7.01 2.485 6 4 C2.375 4.1875 2.375 4.1875 -1 4 C-0.67 2.68 -0.34 1.36 0 0 Z " fill="#E1C9A8" transform="translate(632,127)"/>
<path d="M0 0 C0.33 0.66 0.66 1.32 1 2 C3.02463255 2.65213292 3.02463255 2.65213292 5 3 C3.73392393 3.53229326 2.46189588 4.05044544 1.1875 4.5625 C0.47980469 4.85253906 -0.22789062 5.14257812 -0.95703125 5.44140625 C-3 6 -3 6 -6 5 C-4.68 3.68 -3.36 2.36 -2 1 C-1.67 1.33 -1.34 1.66 -1 2 C-0.67 1.34 -0.34 0.68 0 0 Z " fill="#C6B193" transform="translate(422,97)"/>
<path d="M0 0 C-0.66 1.65 -1.32 3.3 -2 5 C-3.32 4.01 -4.64 3.02 -6 2 C-7.98 2.99 -7.98 2.99 -10 4 C-7.56830601 0.23087432 -7.56830601 0.23087432 -5 -0.8125 C-3 -1 -3 -1 0 0 Z " fill="#DCB999" transform="translate(824,800)"/>
<path d="M0 0 C0.66 1.32 1.32 2.64 2 4 C2.33 3.34 2.66 2.68 3 2 C3.33 2.99 3.66 3.98 4 5 C3.38125 5.061875 2.7625 5.12375 2.125 5.1875 C-0.27761141 5.828919 -0.27761141 5.828919 -1.25 8.5625 C-1.4975 9.366875 -1.745 10.17125 -2 11 C-2.66 11 -3.32 11 -4 11 C-3.52269162 9.5410574 -3.04308958 8.08286504 -2.5625 6.625 C-2.29566406 5.81289063 -2.02882813 5.00078125 -1.75390625 4.1640625 C-1 2 -1 2 0 0 Z " fill="#BAA480" transform="translate(930,656)"/>
<path d="M0 0 C0.8125 1.625 0.8125 1.625 1 4 C-0.46818136 6.24609835 -2.15852858 8.02378677 -4 10 C-4.625 8.1875 -4.625 8.1875 -5 6 C-4.34 5.01 -3.68 4.02 -3 3 C-2.34 3 -1.68 3 -1 3 C-0.67 2.01 -0.34 1.02 0 0 Z " fill="#CEB792" transform="translate(235,233)"/>
<path d="M0 0 C4.75 0.75 4.75 0.75 7 3 C4.36 3.66 1.72 4.32 -1 5 C-0.67 3.35 -0.34 1.7 0 0 Z " fill="#E0C8A9" transform="translate(728,162)"/>
<path d="M0 0 C0.66 0 1.32 0 2 0 C1.65120368 3.25543229 0.97866739 4.01873107 -1.5625 6.25 C-2.366875 6.8275 -3.17125 7.405 -4 8 C-4 7.34 -4 6.68 -4 6 C-4.66 5.67 -5.32 5.34 -6 5 C-4.68 4.67 -3.36 4.34 -2 4 C-2 3.34 -2 2.68 -2 2 C-1.34 2 -0.68 2 0 2 C0 1.34 0 0.68 0 0 Z " fill="#D7BFA0" transform="translate(265,198)"/>
<path d="M0 0 C5.875 3.75 5.875 3.75 7 6 C5.02 6 3.04 6 1 6 C1 5.34 1 4.68 1 4 C0.34 4 -0.32 4 -1 4 C-0.67 2.68 -0.34 1.36 0 0 Z " fill="#D1AD8F" transform="translate(299,799)"/>
<path d="M0 0 C4.82360189 -0.19294408 8.49646738 0.24252386 13 2 C12.67 2.99 12.34 3.98 12 5 C11.34 5 10.68 5 10 5 C9.67 4.34 9.34 3.68 9 3 C6.88153715 2.31270746 6.88153715 2.31270746 4.4375 1.875 C3.61121094 1.70742188 2.78492188 1.53984375 1.93359375 1.3671875 C1.29550781 1.24601563 0.65742187 1.12484375 0 1 C0 0.67 0 0.34 0 0 Z " fill="#BFAC86" transform="translate(752,784)"/>
<path d="M0 0 C4.95 0.99 4.95 0.99 10 2 C10.33 3.32 10.66 4.64 11 6 C7.2089881 4.55049545 3.6125362 2.84827434 0 1 C0 0.67 0 0.34 0 0 Z " fill="#C6AE87" transform="translate(751,125)"/>
<path d="M0 0 C0 0.66 0 1.32 0 2 C-4.46236469 3.80619523 -7.31034294 4.11658501 -12 3 C-7.80491562 0.75263337 -4.79167039 0 0 0 Z " fill="#B9A084" transform="translate(350,675)"/>
<path d="M0 0 C0.66 0 1.32 0 2 0 C2.66 0.66 3.32 1.32 4 2 C5.31747324 2.69748583 6.64914193 3.36959957 8 4 C7.34 4.66 6.68 5.32 6 6 C5.67 6.66 5.34 7.32 5 8 C4.16382818 6.8562364 3.33113541 5.70992861 2.5 4.5625 C2.0359375 3.92441406 1.571875 3.28632812 1.09375 2.62890625 C0 1 0 1 0 0 Z " fill="#CAA98A" transform="translate(609,614)"/>
<path d="M0 0 C0.33 0.66 0.66 1.32 1 2 C0.0625 4.625 0.0625 4.625 -1 7 C-2.32 6.01 -3.64 5.02 -5 4 C-4.67 3.01 -4.34 2.02 -4 1 C-1.9375 0.3125 -1.9375 0.3125 0 0 Z " fill="#D3BAA3" transform="translate(182,325)"/>
<path d="M0 0 C1 3 1 3 -0.4375 6.1875 C-1.2109375 7.5796875 -1.2109375 7.5796875 -2 9 C-2.99 9 -3.98 9 -5 9 C-3.7508258 5.54074837 -2.32472205 2.85306797 0 0 Z " fill="#D2C1A2" transform="translate(259,278)"/>
<path d="M0 0 C4.875 4.75 4.875 4.75 6 7 C4.68 7.33 3.36 7.66 2 8 C0 2.25 0 2.25 0 0 Z " fill="#D3BC8D" transform="translate(234,733)"/>
<path d="M0 0 C2.74277578 3.19990508 4.6302836 6.00499382 6 10 C3.5625 8.9375 3.5625 8.9375 1 7 C0.1875 3.3125 0.1875 3.3125 0 0 Z " fill="#B7A583" transform="translate(204,688)"/>
<path d="M0 0 C-3.44833324 2.05257931 -5.31661591 3.0632763 -9.375 2.6875 C-10.24125 2.460625 -11.1075 2.23375 -12 2 C-7.72170329 -0.29194467 -4.74957752 -1.52664992 0 0 Z " fill="#C3AA87" transform="translate(338,679)"/>
<path d="M0 0 C2 3.75 2 3.75 2 6 C1.34 6 0.68 6 0 6 C-0.33 6.66 -0.66 7.32 -1 8 C-1.66 6.02 -2.32 4.04 -3 2 C-2.01 1.34 -1.02 0.68 0 0 Z " fill="#DBC3A5" transform="translate(742,535)"/>
<path d="M0 0 C1.32 0.66 2.64 1.32 4 2 C3.01 2.33 2.02 2.66 1 3 C0.29848848 4.3153341 -0.36525925 5.65117592 -1 7 C-2.625 8.75 -2.625 8.75 -4 10 C-2.66666667 6.66666667 -1.33333333 3.33333333 0 0 Z " fill="#AA9275" transform="translate(715,516)"/>
<path d="M0 0 C0.66 0.33 1.32 0.66 2 1 C1.01 3.97 0.02 6.94 -1 10 C-1.33 10 -1.66 10 -2 10 C-2.17942163 6.05272412 -2.09350689 3.4019487 0 0 Z " fill="#CAB690" transform="translate(190,304)"/>
<path d="M0 0 C0.66 0.99 1.32 1.98 2 3 C-0.67478244 4.6627026 -2.9995144 5.99983813 -6 7 C-4.77065985 3.31197956 -3.06140622 2.27643027 0 0 Z " fill="#CCB699" transform="translate(316,212)"/>
<path d="M0 0 C0.33 0.99 0.66 1.98 1 3 C1.66 3 2.32 3 3 3 C3.33 2.34 3.66 1.68 4 1 C4.99 1.66 5.98 2.32 7 3 C4.04335481 4.4783226 1.25770263 4.06032783 -2 4 C-2 3.01 -2 2.02 -2 1 C-1.34 0.67 -0.68 0.34 0 0 Z " fill="#DECBB2" transform="translate(751,790)"/>
<path d="M0 0 C0.33 0.99 0.66 1.98 1 3 C-1.15343189 6.23014784 -2.27059611 7.75686537 -6 9 C-4.47291037 5.56404834 -2.40072955 2.88087546 0 0 Z " fill="#D3BE84" transform="translate(885,731)"/>
<path d="M0 0 C0.33 0.66 0.66 1.32 1 2 C2.32 2 3.64 2 5 2 C4.34 4.31 3.68 6.62 3 9 C0.87491756 5.81237635 0.4979837 3.73487777 0 0 Z " fill="#CDB891" transform="translate(950,365)"/>
<path d="M0 0 C1.9375 0.3125 1.9375 0.3125 4 1 C4.33 1.99 4.66 2.98 5 4 C3.5625 6.1875 3.5625 6.1875 2 8 C0.74335022 5.09399739 0 3.20395416 0 0 Z " fill="#D4B192" transform="translate(935,324)"/>
<path d="M0 0 C0.33 0.66 0.66 1.32 1 2 C0.06553465 4.03144641 -0.93224776 6.03533587 -2 8 C-2.66 6.68 -3.32 5.36 -4 4 C-2.68 2.68 -1.36 1.36 0 0 Z M-6 5 C-4 6 -4 6 -4 6 Z " fill="#BBA881" transform="translate(198,292)"/>
<path d="M0 0 C0.66 0.66 1.32 1.32 2 2 C-0.31 4.31 -2.62 6.62 -5 9 C-5 4.61031544 -2.87194899 3.23094261 0 0 Z " fill="#CDB398" transform="translate(210,213)"/>
<path d="M0 0 C-0.33 0.99 -0.66 1.98 -1 3 C-3.64 3.33 -6.28 3.66 -9 4 C-4.5 0 -4.5 0 0 0 Z " fill="#DAC5A5" transform="translate(377,170)"/>
<path d="M0 0 C0.33 0.66 0.66 1.32 1 2 C3.02463255 2.65213292 3.02463255 2.65213292 5 3 C0.375 5.125 0.375 5.125 -3 4 C-2.67 3.01 -2.34 2.02 -2 1 C-1.34 0.67 -0.68 0.34 0 0 Z " fill="#CBA78C" transform="translate(406,103)"/>
<path d="M0 0 C-3.31371 2.20914 -4.3446021 2.22481553 -8.1875 2.125 C-9.08855469 2.10695313 -9.98960937 2.08890625 -10.91796875 2.0703125 C-11.60503906 2.04710937 -12.29210937 2.02390625 -13 2 C-8.53448096 -0.31790713 -4.94391187 -1.64797062 0 0 Z " fill="#C29B7F" transform="translate(657,882)"/>
<path d="M0 0 C2.31 0.33 4.62 0.66 7 1 C7.33 2.32 7.66 3.64 8 5 C4.5625 4.1875 4.5625 4.1875 1 3 C0.67 2.01 0.34 1.02 0 0 Z " fill="#D2B293" transform="translate(424,823)"/>
<path d="M0 0 C-0.33 1.32 -0.66 2.64 -1 4 C-1.99 4 -2.98 4 -4 4 C-4 3.34 -4 2.68 -4 2 C-5.65 2 -7.3 2 -9 2 C-5.86501708 0.14223235 -3.62528568 -0.20140476 0 0 Z " fill="#C1AF92" transform="translate(442,819)"/>
<path d="M0 0 C1.65 0 3.3 0 5 0 C5 0.66 5 1.32 5 2 C5.99 2.66 6.98 3.32 8 4 C5.69 3.67 3.38 3.34 1 3 C0.67 2.01 0.34 1.02 0 0 Z " fill="#D8C5AB" transform="translate(376,769)"/>
<path d="M0 0 C2.97 0 5.94 0 9 0 C9.33 0.99 9.66 1.98 10 3 C8.35 3.33 6.7 3.66 5 4 C5.66 3.67 6.32 3.34 7 3 C7 2.34 7 1.68 7 1 C4.69 1 2.38 1 0 1 C0 0.67 0 0.34 0 0 Z " fill="#BF9C78" transform="translate(819,702)"/>
<path d="M0 0 C2.97 0 5.94 0 9 0 C9 0.33 9 0.66 9 1 C6.69 1 4.38 1 2 1 C2 1.99 2 2.98 2 4 C1.01 4 0.02 4 -1 4 C-0.67 2.68 -0.34 1.36 0 0 Z " fill="#E4D0B0" transform="translate(744,697)"/>
<path d="M0 0 C1.65 0.99 3.3 1.98 5 3 C4.34 5.31 3.68 7.62 3 10 C1.11608215 6.73454239 0.50712033 3.71888239 0 0 Z " fill="#C4AC8E" transform="translate(767,635)"/>
<path d="M0 0 C2.29633824 3.44450737 2.54016485 5.93812283 3 10 C2.34 9.34 1.68 8.68 1 8 C0.01 8 -0.98 8 -2 8 C-1.67 7.34 -1.34 6.68 -1 6 C-0.34 6 0.32 6 1 6 C0.67 4.02 0.34 2.04 0 0 Z " fill="#BBA97D" transform="translate(167,602)"/>
<path d="M0 0 C0.66 0.99 1.32 1.98 2 3 C0.35 4.98 -1.3 6.96 -3 9 C-3.75 7.3125 -3.75 7.3125 -4 5 C-2.0625 2.25 -2.0625 2.25 0 0 Z " fill="#D5C194" transform="translate(450,404)"/>
<path d="M0 0 C1.98 0 3.96 0 6 0 C6.33 0.99 6.66 1.98 7 3 C7.66 3.33 8.32 3.66 9 4 C8.67 4.66 8.34 5.32 8 6 C6.66402348 5.19185349 5.331275 4.37836819 4 3.5625 C3.2575 3.11003906 2.515 2.65757812 1.75 2.19140625 C1.1725 1.79824219 0.595 1.40507812 0 1 C0 0.67 0 0.34 0 0 Z " fill="#A69073" transform="translate(377,353)"/>
<path d="M0 0 C0.66 0 1.32 0 2 0 C2.66 0.66 3.32 1.32 4 2 C4.99 2 5.98 2 7 2 C6.67 3.65 6.34 5.3 6 7 C1.125 3.375 1.125 3.375 0 0 Z " fill="#BFAD90" transform="translate(869,219)"/>
<path d="M0 0 C0.33 0.99 0.66 1.98 1 3 C-0.32 3.99 -1.64 4.98 -3 6 C-3 5.34 -3 4.68 -3 4 C-3.66 3.67 -4.32 3.34 -5 3 C-2.25 0 -2.25 0 0 0 Z " fill="#D9C19F" transform="translate(255,210)"/>
<path d="M0 0 C-2.36292656 2.52588702 -3.66462511 3.88820837 -7 5 C-7 3.68 -7 2.36 -7 1 C-4.53721199 -0.231394 -2.7204945 -0.07159196 0 0 Z " fill="#D6B292" transform="translate(322,153)"/>
<path d="M0 0 C0 0.66 0 1.32 0 2 C0.99 2.66 1.98 3.32 3 4 C-0.3 3.67 -3.6 3.34 -7 3 C-2.5 0 -2.5 0 0 0 Z " fill="#BFA787" transform="translate(474,787)"/>
<path d="M0 0 C2.97 0.33 5.94 0.66 9 1 C8.01 1.33 7.02 1.66 6 2 C5.67 2.66 5.34 3.32 5 4 C5 3.01 5 2.02 5 1 C3.35 1.66 1.7 2.32 0 3 C0 2.01 0 1.02 0 0 Z " fill="#CEB893" transform="translate(740,742)"/>
<path d="M0 0 C1.670625 0.061875 1.670625 0.061875 3.375 0.125 C3.045 1.115 2.715 2.105 2.375 3.125 C-0.265 2.795 -2.905 2.465 -5.625 2.125 C-3.625 0.125 -3.625 0.125 0 0 Z " fill="#F1DCBD" transform="translate(822.625,454.875)"/>
<path d="M0 0 C0.33 0 0.66 0 1 0 C0.67 3.63 0.34 7.26 0 11 C-0.33 11 -0.66 11 -1 11 C-1.33 8.03 -1.66 5.06 -2 2 C-1.34 2 -0.68 2 0 2 C0 1.34 0 0.68 0 0 Z " fill="#C6AC8C" transform="translate(155,415)"/>
<path d="M0 0 C0.66 0 1.32 0 2 0 C2 0.66 2 1.32 2 2 C2.99 2 3.98 2 5 2 C5.33 4.31 5.66 6.62 6 9 C3.59927045 6.11912454 1.52708963 3.43595166 0 0 Z " fill="#C2B090" transform="translate(900,260)"/>
<path d="M0 0 C0.66 0 1.32 0 2 0 C1.50168276 3.68754757 0.89932357 5.60490662 -2 8 C-2.20086443 4.28400809 -2.1519437 3.22791555 0 0 Z " fill="#CEB49B" transform="translate(226,244)"/>
<path d="M0 0 C-0.66 0.66 -1.32 1.32 -2 2 C-4.1640625 1.9765625 -4.1640625 1.9765625 -6.625 1.625 C-7.44226563 1.51414062 -8.25953125 1.40328125 -9.1015625 1.2890625 C-9.72804688 1.19367188 -10.35453125 1.09828125 -11 1 C-11 0.67 -11 0.34 -11 0 C-3.375 -1.125 -3.375 -1.125 0 0 Z " fill="#C4AE86" transform="translate(649,85)"/>
<path d="M0 0 C0.53625 0.515625 1.0725 1.03125 1.625 1.5625 C-4.4296875 1.7578125 -4.4296875 1.7578125 -6.375 1.5625 C-7.035 0.9025 -7.695 0.2425 -8.375 -0.4375 C-2.95961538 -1.79134615 -2.95961538 -1.79134615 0 0 Z " fill="#BAA584" transform="translate(612.375,79.4375)"/>
</svg>
